<?xml version="1.0" encoding="UTF-8"?>
<svg version="1.1" viewBox="0 0 2000 2000" width="1280" height="1280" xmlns="http://www.w3.org/2000/svg">
<path transform="translate(383,167)" d="m0 0h11l56 3 153 1h141l35 1 3 2 54 1 1031 1 2 1v304l-1 3-4 2-363 1 1 877 1 14v47l-1 23v19l1 1v196l-1 40-1 19-2 1h-353v-1074l1-124 1-35-2-5-3-3-26 1-11 1-28 1h-301v49l2 121 1 108v1166l-2 5-3 1-138 1h-82l-182-1-1-1v-40l2-150v-1484l-2-61v-23l3-5z" fill="#FDFDFD"/>
<path transform="translate(777,603)" d="m0 0h1l1 53 1 108v1166l-2 5-3-1 1-1z" fill="#A771FB"/>
<path transform="translate(375,1630)" d="m0 0h1v302l1 2h396l2 2-138 1h-82l-182-1-1-1v-40l2-150z" fill="#A771FB"/>
<path transform="translate(778,172)" d="m0 0 4 2-1 2v310h-4l-1-3v-251l1-54z" fill="#A771FB"/>
<path transform="translate(1500,1055)" d="m0 0h1l1 309 1 14v47l-1 23v19l1 1v196l-1 40-1 15h-1z" fill="#A771FB"/>
<path transform="translate(375,172)" d="m0 0h1l-1 89h-1l-2-61v-23z" fill="#A771FB"/>
<path transform="translate(383,167)" d="m0 0h11l56 3v1h-72l3-3z" fill="#A771FB"/>
</svg>
